<?xml version="1.0" encoding="UTF-8" standalone="no"?>
<svg
   width="350"
   zoomAndPan="magnify"
   viewBox="0 0 262.35999 150"
   height="200"
   preserveAspectRatio="xMidYMid"
   version="1.0"
   id="svg102"
   sodipodi:docname="Ben’s Custom Laser Shop.svg"
   inkscape:version="1.4 (86a8ad7, 2024-10-11)"
   xmlns:inkscape="http://www.inkscape.org/namespaces/inkscape"
   xmlns:sodipodi="http://sodipodi.sourceforge.net/DTD/sodipodi-0.dtd"
   xmlns="http://www.w3.org/2000/svg"
   xmlns:svg="http://www.w3.org/2000/svg">
  <sodipodi:namedview
     id="namedview102"
     pagecolor="#ffffff"
     bordercolor="#000000"
     borderopacity="0.25"
     inkscape:showpageshadow="2"
     inkscape:pageopacity="0.0"
     inkscape:pagecheckerboard="0"
     inkscape:deskcolor="#d1d1d1"
     inkscape:zoom="0.729375"
     inkscape:cx="-103.51328"
     inkscape:cy="141.90231"
     inkscape:window-width="2560"
     inkscape:window-height="1369"
     inkscape:window-x="-8"
     inkscape:window-y="-8"
     inkscape:window-maximized="1"
     inkscape:current-layer="svg102" />
  <defs
     id="defs3">
    <g
       id="g1" />
    <clipPath
       id="1961fbcc16">
      <path
         d="M 0,0.0390625 H 224.76172 V 149.96094 H 0 Z m 0,0"
         clip-rule="nonzero"
         id="path1" />
    </clipPath>
    <clipPath
       id="7ced25211c">
      <path
         d="M 73.261719,42.859375 H 110 V 107 H 73.261719 Z m 0,0"
         clip-rule="nonzero"
         id="path2" />
    </clipPath>
    <clipPath
       id="49dadf57c3">
      <path
         d="m 123,71 h 22.97266 V 96 H 123 Z m 0,0"
         clip-rule="nonzero"
         id="path3" />
    </clipPath>
  </defs>
  <g
     clip-path="url(#1961fbcc16)"
     id="g5"
     style="fill:none"
     transform="matrix(1.0480113,0,0,1.0480113,9.7825571,-5.1823225)">
    <path
       fill="#ffffff"
       d="M 0,0.0390625 H 224.87891 V 149.96094 H 0 Z m 0,0"
       fill-opacity="1"
       fill-rule="nonzero"
       id="path4"
       style="fill:none" />
    <path
       fill="#000000"
       d="M 0,0.0390625 H 224.87891 V 149.96094 H 0 Z m 0,0"
       fill-opacity="1"
       fill-rule="nonzero"
       id="path5"
       style="fill:none" />
  </g>
  <g
     clip-path="url(#7ced25211c)"
     id="g6"
     transform="matrix(1.9138059,0,0,1.9138059,-87.742803,-70.039142)">
    <path
       fill="#ff3131"
       d="M 109.25391,42.941406 C 103.58594,53.171875 97.066406,64.886719 91.453125,74.945312 85.609375,85.488281 79.722656,95.980469 73.34375,106.89063 c 0,0 -0.08203,0.0703 -0.08203,0.0703 2.074219,-3.86719 4.261719,-7.847659 6.480469,-11.859378 3.601561,-6.546864 7.632811,-13.644521 11.36328,-20.222646 4.941406,-8.757812 11.007811,-19.457031 15.890621,-28.054687 0,0 2.25391,-3.964844 2.25391,-3.964844 0.004,0.02344 0.004,0.05078 0.004,0.08203 z m 0,0"
       fill-opacity="1"
       fill-rule="nonzero"
       id="path6" />
  </g>
  <path
     fill="#ff3131"
     d="M 121.75915,17.943604 C 111.75652,35.855632 100.22882,56.354288 90.338337,73.989713 79.976871,92.454957 69.615405,110.83049 58.319465,129.91622 c 0,0 -0.156994,0.12708 -0.156994,0.12708 3.640719,-6.7656 7.520665,-13.748 11.415555,-20.78274 C 75.95489,97.7852 83.071854,85.375365 89.65804,73.855147 c 8.754164,-15.325401 19.45952,-34.052291 28.09408,-49.123513 0,0 3.9846,-6.945022 3.9846,-6.945022 0.015,0.05981 0.0224,0.104664 0.0224,0.156992 z m 0,0"
     fill-opacity="1"
     fill-rule="nonzero"
     id="path7"
     style="stroke-width:1.91381" />
  <path
     fill="#ff3131"
     d="m 122.43197,23.288804 c -9.2401,16.386964 -19.88564,35.15871 -29.0136,51.306449 -9.554078,16.895321 -19.13806,33.730837 -29.611662,51.179367 0,0 -0.142045,0.11213 -0.142045,0.11213 3.356638,-6.19743 6.930075,-12.58925 10.518461,-19.01845 C 80.051629,96.364797 86.64529,85.009047 92.730593,74.460687 100.82689,60.436078 110.73233,43.286584 118.72397,29.493722 c 0,0 3.68557,-6.346957 3.68557,-6.346957 0.007,0.05233 0.007,0.09718 0.0225,0.142039 z m 0,0"
     fill-opacity="1"
     fill-rule="nonzero"
     id="path8"
     style="stroke-width:1.91381" />
  <path
     fill="#ff3131"
     d="M 123.34402,28.200407 C 114.81412,43.2193 104.96101,60.413649 96.528302,75.208267 87.6919,90.690665 78.840549,106.12072 69.114527,122.09652 c 0,0 -0.149515,0.0971 -0.149515,0.0971 3.102457,-5.68161 6.384338,-11.53516 9.718547,-17.43357 5.42743,-9.621369 11.527688,-20.020216 17.156971,-29.678956 7.48328,-12.843433 16.65609,-28.550098 24.04967,-41.184207 0,0 3.42391,-5.816178 3.42391,-5.816178 0.0225,0.03738 0.0299,0.08224 0.0299,0.119613 z m 0,0"
     fill-opacity="1"
     fill-rule="nonzero"
     id="path9"
     style="stroke-width:1.91381" />
  <path
     fill="#ff3131"
     d="M 124.51772,32.68589 C 116.6158,46.463799 107.49531,62.237748 99.683092,75.821287 91.497089,90.03279 83.281177,104.20692 74.235457,118.82959 c 0,0 -0.134571,0.0897 -0.134571,0.0897 2.855761,-5.22558 5.905889,-10.60068 8.978442,-16.00569 5.016269,-8.836404 10.690405,-18.375534 15.908512,-27.22689 6.9525,-11.77439 15.45249,-26.195218 22.33024,-37.782714 0,0 3.17722,-5.330248 3.17722,-5.330248 -0.015,0.0299 0,0.07476 0.0225,0.112135 z m 0,0"
     fill-opacity="1"
     fill-rule="nonzero"
     id="path10"
     style="stroke-width:1.91381" />
  <path
     fill="#ff3131"
     d="m 125.89327,36.76768 c -7.3263,12.671489 -15.79638,27.189501 -23.05539,39.674096 -7.60289,13.067706 -15.243162,26.127944 -23.675872,39.547014 0,0 -0.134565,0.0823 -0.134565,0.0823 2.638957,-4.81441 5.472288,-9.76341 8.320574,-14.72733 4.657425,-8.12621 9.927865,-16.887856 14.787143,-25.036481 6.45909,-10.824966 14.36849,-24.072092 20.76031,-34.732589 0,0 2.95295,-4.911604 2.95295,-4.911604 0.0225,0.0299 0.0374,0.07475 0.0448,0.104665 z m 0,0"
     fill-opacity="1"
     fill-rule="nonzero"
     id="path11"
     style="stroke-width:1.91381" />
  <path
     fill="#ff3131"
     d="m 127.50804,40.468205 c -6.81793,11.677205 -14.72734,25.066373 -21.48546,36.60154 -7.087068,12.05847 -14.218986,24.102005 -22.105959,36.474455 0,0 -0.134566,0.0598 -0.134566,0.0598 2.467013,-4.44062 5.091026,-9.00835 7.744933,-13.59849 4.335971,-7.498233 9.247572,-15.564627 13.792862,-23.070338 6.0255,-9.987673 13.4116,-22.195663 19.38476,-32.03382 0,0 2.75858,-4.530339 2.75858,-4.522864 0.015,0.02243 0.0374,0.05981 0.0449,0.08971 z m 0,0"
     fill-opacity="1"
     fill-rule="nonzero"
     id="path12"
     style="stroke-width:1.91381" />
  <path
     fill="#ff3131"
     d="m 129.33961,43.802413 c -6.38434,10.802538 -13.78539,23.204897 -20.12487,33.880347 -6.62356,11.168854 -13.321882,22.34519 -20.730401,33.76074 0,0 -0.119616,0.0598 -0.119616,0.0598 2.295074,-4.13412 4.754612,-8.35795 7.23658,-12.60421 4.04441,-6.93755 8.656987,-14.398404 12.918187,-21.350903 5.64424,-9.240098 12.57431,-20.536038 18.18116,-29.649044 0,0 2.59411,-4.186449 2.57916,-4.186449 0.0225,0.0299 0.0374,0.06728 0.0598,0.08971 z m 0,0"
     fill-opacity="1"
     fill-rule="nonzero"
     id="path13"
     style="stroke-width:1.91381" />
  <path
     fill="#ff3131"
     d="m 131.36555,46.800209 c -5.99559,10.047483 -12.97051,21.575175 -18.92874,31.51052 -6.23481,10.398845 -12.55187,20.812641 -19.549222,31.398381 0,0 -0.127091,0.0449 -0.127091,0.0449 2.167983,-3.85751 4.470532,-7.78979 6.810459,-11.744491 3.812654,-6.451639 8.141154,-13.381711 12.155654,-19.840812 5.32278,-8.574745 11.84916,-19.093201 17.13455,-27.563291 0,0 2.43712,-3.894894 2.43712,-3.894894 0.0225,0.04485 0.0449,0.06728 0.0673,0.08971 z m 0,0"
     fill-opacity="1"
     fill-rule="nonzero"
     id="path14"
     style="stroke-width:1.91381" />
  <path
     fill="#ff3131"
     d="m 133.58587,49.469071 c -5.67413,9.397089 -12.26779,20.177196 -17.9195,29.477097 -5.91337,9.726027 -11.90896,19.489425 -18.532528,29.357492 0,0 -0.112136,0.0374 -0.112136,0.0374 2.033422,-3.62577 4.216354,-7.2964 6.429194,-10.99692 3.59586,-6.040449 7.70756,-12.499542 11.50527,-18.539996 5.04616,-8.021539 11.22865,-17.837268 16.2524,-25.754148 0,0 2.3175,-3.655668 2.3175,-3.648193 0.015,0.02243 0.0374,0.04485 0.0598,0.06728 z m 0,0"
     fill-opacity="1"
     fill-rule="nonzero"
     id="path15"
     style="stroke-width:1.91381" />
  <path
     fill="#ff3131"
     d="m 135.97814,51.846378 c -5.40502,8.828927 -11.69965,18.98107 -17.08223,27.735239 -5.63675,9.157861 -11.36322,18.375527 -17.71018,27.623103 0,0 -0.11214,0.0225 -0.11214,0.0225 1.93624,-3.42392 4.03694,-6.87774 6.13016,-10.361465 3.4314,-5.681616 7.34872,-11.759446 10.97449,-17.441058 4.80695,-7.535614 10.71282,-16.775708 15.50482,-24.229085 0,0 2.22031,-3.431395 2.22031,-3.431395 0.0299,0.03738 0.0523,0.05981 0.0747,0.08224 z m 0,0"
     fill-opacity="1"
     fill-rule="nonzero"
     id="path16"
     style="stroke-width:1.91381" />
  <path
     fill="#ff3131"
     d="m 138.54981,53.939603 c -5.18073,8.365428 -11.22866,17.979309 -16.4094,26.277453 -5.41248,8.679411 -10.9371,17.426108 -17.02988,26.157854 0,0 -0.11214,0.0225 -0.11214,0.0225 1.86895,-3.23701 3.86499,-6.526368 5.88346,-9.823198 3.28188,-5.382581 7.04969,-11.131477 10.53341,-16.499109 4.62753,-7.131918 10.30913,-15.878608 14.92171,-22.950718 0,0 2.13808,-3.251977 2.13808,-3.251977 0.0299,0.0299 0.0523,0.04485 0.0747,0.06728 z m 0,0"
     fill-opacity="1"
     fill-rule="nonzero"
     id="path17"
     style="stroke-width:1.91381" />
  <path
     fill="#ff3131"
     d="m 141.29342,55.763698 c -5.01625,7.976685 -10.87729,17.156975 -15.90103,25.088802 -5.24802,8.290669 -10.61564,16.671048 -16.52153,24.9692 0,0 -0.0972,0.007 -0.0972,0.007 1.81662,-3.10246 3.75285,-6.249775 5.70403,-9.389611 3.1847,-5.135879 6.82542,-10.608169 10.20448,-15.729099 4.47801,-6.795504 9.9802,-15.138503 14.45821,-21.889153 0,0 2.07079,-3.109937 2.07079,-3.109937 0.0225,0.02992 0.0448,0.04488 0.0823,0.05233 z m 0,0"
     fill-opacity="1"
     fill-rule="nonzero"
     id="path18"
     style="stroke-width:1.91381" />
  <path
     fill="#ff3131"
     d="m 144.17908,57.370999 c -4.88916,7.662701 -10.61564,16.499098 -15.53472,24.131899 -5.13588,7.961731 -10.39137,16.050554 -16.14774,24.004812 0,0 -0.10466,0.015 -0.10466,0.015 1.77176,-3.01275 3.66315,-6.018032 5.56947,-9.045732 3.10995,-4.941506 6.6759,-10.189519 9.96526,-15.108605 4.37334,-6.526374 9.75592,-14.547912 14.13674,-21.044387 0,0 2.02594,-2.990321 2.02594,-2.990321 0,-0.0075 0.0897,0.03737 0.0897,0.03737 z m 0,0"
     fill-opacity="1"
     fill-rule="nonzero"
     id="path19"
     style="stroke-width:1.91381" />
  <path
     fill="#ff3131"
     d="m 147.19932,58.754024 c -4.81442,7.415994 -10.46613,15.975794 -15.31045,23.384313 -5.05365,7.729988 -10.25681,15.57958 -15.93095,23.257243 0,0 -0.0897,0 -0.0897,0 1.74934,-2.91557 3.61829,-5.846089 5.49472,-8.776606 3.06508,-4.791987 6.56376,-9.860586 9.81573,-14.630152 4.30607,-6.32453 9.61389,-14.091892 13.9349,-20.371568 0,0 2.00352,-2.900609 2.00352,-2.900609 0.0225,0.01496 0.0599,0.02242 0.0823,0.03737 z m 0,0"
     fill-opacity="1"
     fill-rule="nonzero"
     id="path20"
     style="stroke-width:1.91381" />
  <path
     fill="#ff3131"
     d="m 150.36158,59.942674 c -4.77704,7.229105 -10.39885,15.594528 -15.22075,22.831107 -5.0312,7.535617 -10.22689,15.235696 -15.84122,22.704029 0,0 -0.0897,0 -0.0897,0 1.74934,-2.86324 3.61082,-5.718996 5.47229,-8.582231 3.04266,-4.6649 6.5189,-9.613883 9.74845,-14.256363 4.29112,-6.175015 9.5466,-13.748004 13.86014,-19.88564 0,0 1.98857,-2.833326 1.98857,-2.833326 0.0225,0 0.0449,0.01496 0.0823,0.02242 z m 0,0"
     fill-opacity="1"
     fill-rule="nonzero"
     id="path21"
     style="stroke-width:1.91381" />
  <path
     fill="#ff3131"
     d="m 153.63598,60.959385 c -4.79199,7.102015 -10.41379,15.325397 -15.25063,22.442365 -5.04619,7.423476 -10.26429,15.011419 -15.87862,22.33024 0,0 -0.0897,-0.015 -0.0897,-0.015 1.76428,-2.81838 3.62576,-5.62181 5.49471,-8.440183 3.05013,-4.590148 6.52637,-9.449424 9.76339,-14.017142 4.28365,-6.062874 9.56904,-13.501302 13.8751,-19.549226 0,0 1.99604,-2.788477 1.99604,-2.788477 0.0374,0.01496 0.0673,0.02242 0.0897,0.03737 z m 0,0"
     fill-opacity="1"
     fill-rule="nonzero"
     id="path22"
     style="stroke-width:1.91381" />
  <path
     fill="#ff3131"
     d="m 157.03,61.826577 c -4.82938,7.027256 -10.51099,15.160931 -15.40016,22.210617 -5.10597,7.356193 -10.3839,14.861904 -16.0356,22.098486 0,0 -0.0897,-0.015 -0.0897,-0.015 1.78671,-2.80343 3.66314,-5.58442 5.56199,-8.365424 3.07256,-4.545289 6.58619,-9.337282 9.84564,-13.860147 4.32101,-5.995596 9.65875,-13.359261 14.01713,-19.339908 0,0 2.01847,-2.751093 2.01847,-2.766048 0.0225,0.01496 0.0523,0.02241 0.0823,0.03737 z m 0,0"
     fill-opacity="1"
     fill-rule="nonzero"
     id="path23"
     style="stroke-width:1.91381" />
  <path
     fill="#ff3131"
     d="m 160.52119,62.559207 c -4.91159,6.989878 -10.70534,15.101124 -15.67675,22.113431 -5.18822,7.318814 -10.57079,14.817045 -16.29726,21.993822 0,0 -0.0747,-0.007 -0.0747,-0.007 1.8241,-2.79596 3.7379,-5.562 5.65919,-8.335532 3.12488,-4.52286 6.68337,-9.277475 10.00262,-13.785385 4.39578,-5.958217 9.80078,-13.284504 14.23393,-19.235246 0,0 2.05585,-2.743619 2.05585,-2.743619 0.0299,-0.0075 0.0599,-0.0075 0.0971,0 z m 0,0"
     fill-opacity="1"
     fill-rule="nonzero"
     id="path24"
     style="stroke-width:1.91381" />
  <path
     fill="#ff3131"
     d="m 164.10959,63.194651 c -5.02375,6.989873 -10.95206,15.086174 -16.04309,22.105956 -5.31529,7.318814 -10.83991,14.824523 -16.66356,21.978873 0,0 -0.0823,-0.0225 -0.0823,-0.0225 1.88389,-2.79596 3.84255,-5.56948 5.81616,-8.335536 3.20713,-4.52286 6.84036,-9.277474 10.22691,-13.770434 4.49296,-5.943263 10.02506,-13.27703 14.56287,-19.235247 0,0 2.09322,-2.743619 2.09322,-2.751094 0.0225,0.02242 0.0523,0.02242 0.0897,0.02992 z m 0,0"
     fill-opacity="1"
     fill-rule="nonzero"
     id="path25"
     style="stroke-width:1.91381" />
  <path
     fill="#ff3131"
     d="m 167.76525,63.732908 c -5.17326,7.004828 -11.26604,15.138503 -16.51405,22.188193 -5.47229,7.341239 -11.16138,14.899289 -17.13454,22.068579 0,0 -0.0747,-0.0225 -0.0747,-0.0225 1.94371,-2.81838 3.96218,-5.5919 5.98812,-8.372903 3.31178,-4.53782 7.03474,-9.307377 10.51098,-13.815289 4.61256,-5.973171 10.30165,-13.321887 14.95909,-19.310009 0,0 2.16051,-2.751093 2.16051,-2.758568 0.0374,0.02242 0.0673,0.02242 0.10469,0.02242 z m 0,0"
     fill-opacity="1"
     fill-rule="nonzero"
     id="path26"
     style="stroke-width:1.91381" />
  <path
     fill="#ff3131"
     d="m 171.50316,64.211362 c -5.34521,7.049681 -11.63984,15.23569 -17.06727,22.337704 -5.65918,7.386097 -11.55011,14.996474 -17.68028,22.210624 0,0 -0.0673,-0.0225 -0.0673,-0.0225 2.01847,-2.8408 4.1117,-5.62181 6.20492,-8.4327 3.42391,-4.567723 7.25901,-9.367188 10.85487,-13.905005 4.7546,-6.00307 10.63059,-13.411594 15.43754,-19.429615 0,0 2.22778,-2.773527 2.22778,-2.773527 0.015,0.01496 0.0449,0.01496 0.0897,0.01496 z m 0,0"
     fill-opacity="1"
     fill-rule="nonzero"
     id="path27"
     style="stroke-width:1.91381" />
  <path
     fill="#ff3131"
     d="m 175.29339,64.644958 c -5.54705,7.109489 -12.07343,15.362775 -17.71018,22.524602 -5.86103,7.453375 -11.97624,15.13103 -18.31573,22.40499 0,0 -0.0673,-0.0225 -0.0673,-0.0225 2.1007,-2.86323 4.27616,-5.68161 6.44415,-8.49999 3.54352,-4.597622 7.52066,-9.434467 11.24361,-14.017137 4.93402,-6.055403 11.00438,-13.523735 15.99822,-19.594084 0,0 2.31002,-2.795952 2.31002,-2.795952 0.0299,-0.01496 0.0598,0 0.0971,0 z m 0,0"
     fill-opacity="1"
     fill-rule="nonzero"
     id="path28"
     style="stroke-width:1.91381" />
  <path
     fill="#ff3131"
     d="m 179.1509,65.04865 c -5.77132,7.169297 -12.56682,15.50482 -18.42786,22.733924 -6.11521,7.520658 -12.47712,15.273076 -19.03339,22.614316 0,0 -0.0598,-0.0225 -0.0598,-0.0225 2.1904,-2.88566 4.45557,-5.73394 6.72822,-8.57475 3.68557,-4.64995 7.80474,-9.524178 11.66973,-14.151702 5.1284,-6.115207 11.43051,-13.643342 16.61124,-19.780978 0,0 2.39974,-2.833331 2.39974,-2.833331 0.0299,0.01496 0.0673,0.01496 0.11214,0.01496 z m 0,0"
     fill-opacity="1"
     fill-rule="nonzero"
     id="path29"
     style="stroke-width:1.91381" />
  <path
     fill="#ff3131"
     d="m 183.03833,65.444867 c -6.01803,7.244054 -13.09014,15.654335 -19.20536,22.950722 -6.37685,7.587945 -13.01536,15.422591 -19.81088,22.831111 0,0 -0.0673,-0.0225 -0.0673,-0.0225 2.30256,-2.92304 4.65744,-5.78627 7.02727,-8.65698 3.85751,-4.694808 8.14862,-9.613885 12.15566,-14.286267 5.32277,-6.167535 11.90148,-13.777908 17.29154,-19.975352 0,0 2.49692,-2.84828 2.49692,-2.84828 0.0299,0 0.0673,0 0.11214,0.0075 z m 0,0"
     fill-opacity="1"
     fill-rule="nonzero"
     id="path30"
     style="stroke-width:1.91381" />
  <path
     fill="#ff3131"
     d="m 186.95565,65.848558 c -6.27221,7.303863 -13.66578,15.788901 -20.05012,23.152571 -6.65346,7.647749 -13.58353,15.549681 -20.64817,23.025481 0,0 -0.0523,-0.0225 -0.0523,-0.0225 2.40721,-2.94546 4.8817,-5.8386 7.34124,-8.73173 4.02199,-4.739671 8.49252,-9.703606 12.67897,-14.405892 5.54704,-6.227343 12.40235,-13.904998 18.01668,-20.147291 0,0 2.59411,-2.87071 2.59411,-2.87071 0.0449,-0.01496 0.0897,0 0.11962,0 z m 0,0"
     fill-opacity="1"
     fill-rule="nonzero"
     id="path31"
     style="stroke-width:1.91381" />
  <g
     clip-path="url(#49dadf57c3)"
     id="g32"
     transform="matrix(1.9138059,0,0,1.9138059,-87.742803,-70.039142)">
    <path
       fill="#ff3131"
       d="m 145.59766,71.230469 c -3.42579,3.84375 -7.44532,8.3125 -10.94532,12.179687 -3.61328,4.027344 -7.41406,8.183594 -11.25,12.117188 0,0 -0.0312,-0.01172 -0.0312,-0.01172 1.32032,-1.546875 2.66797,-3.066406 4.01563,-4.59375 2.19531,-2.488281 4.625,-5.109375 6.91797,-7.582031 3.01562,-3.277344 6.75781,-7.320313 9.82031,-10.601563 0,0 1.41406,-1.511719 1.41406,-1.511719 0.0234,0 0.0391,0.0039 0.0586,0.0039 z m 0,0"
       fill-opacity="1"
       fill-rule="nonzero"
       id="path32" />
  </g>
  <path
     stroke-linecap="butt"
     fill="none"
     stroke-linejoin="miter"
     d="M 22.443077,89.4123 V 77.084695 h 5.26297 c 0.75506,0 1.39798,0.119611 1.92128,0.358838 0.53078,0.239227 0.927,0.583116 1.19613,1.024186 0.26913,0.441071 0.40369,0.956903 0.40369,1.562443 0,0.545737 -0.13456,1.024186 -0.39621,1.442832 -0.26165,0.411167 -0.64292,0.747581 -1.13632,1.001757 v 0.171944 c 0.77748,0.201849 1.37554,0.575636 1.79419,1.106419 0.418644,0.530782 0.635443,1.188655 0.635443,1.966139 0,1.181176 -0.358839,2.085751 -1.069043,2.728669 -0.7102,0.642924 -1.76429,0.964378 -3.16226,0.964378 z m 4.75462,-7.408523 c 1.13632,0 1.70448,-0.515833 1.70448,-1.540019 0,-0.523303 -0.14204,-0.912045 -0.42612,-1.166226 -0.27661,-0.254177 -0.70273,-0.381263 -1.27836,-0.381263 h -2.3175 v 3.087508 z m 0.44855,5.472292 c 1.34564,0 2.01098,-0.60554 2.01098,-1.824098 0,-1.226035 -0.66534,-1.839049 -2.01098,-1.839049 h -2.76605 v 3.663147 z m 14.435775,-2.190411 h -5.973169 c 0.06728,0.814858 0.299032,1.397973 0.687774,1.764286 0.396217,0.373792 0.934476,0.553211 1.614775,0.553211 0.530781,0 0.964379,-0.09718 1.293314,-0.299035 0.336412,-0.194368 0.598064,-0.500878 0.799911,-0.904569 h 0.17942 l 1.547491,0.994281 c -0.299032,0.650399 -0.755056,1.181176 -1.368072,1.584873 -0.613016,0.403691 -1.435355,0.605539 -2.452064,0.605539 -0.96438,0 -1.794194,-0.179419 -2.496919,-0.545731 -0.695251,-0.366318 -1.233509,-0.91205 -1.614775,-1.629731 -0.381266,-0.725151 -0.568161,-1.607296 -0.568161,-2.646437 0,-1.054085 0.194371,-1.943705 0.598065,-2.668861 0.396217,-0.725151 0.934475,-1.263408 1.614773,-1.622246 0.680299,-0.358843 1.450307,-0.538262 2.295073,-0.538262 1.315741,0 2.324975,0.351363 3.020226,1.046615 0.702726,0.695252 1.054089,1.719438 1.054089,3.072553 0,0.485929 -0.02242,0.867191 -0.05233,1.136327 z M 40.078507,83.775543 C 40.056087,83.072816 39.891611,82.556984 39.585103,82.235524 39.278595,81.90659 38.830046,81.7496 38.239458,81.7496 c -1.181178,0 -1.876428,0.672818 -2.078274,2.025943 z m 4.261208,5.636757 v -9.299905 h 2.242743 v 1.368074 l 0.179419,0.03737 c 0.575637,-1.05409 1.517589,-1.584872 2.810904,-1.584872 1.076514,0 1.861474,0.291555 2.369829,0.882146 0.50088,0.583115 0.755056,1.435357 0.755056,2.54925 v 6.047929 H 50.35774 v -5.756374 c 0,-0.620489 -0.119612,-1.069039 -0.366314,-1.33817 -0.246702,-0.276601 -0.642921,-0.411167 -1.188654,-0.411167 -0.672822,0 -1.188653,0.216798 -1.562443,0.650394 -0.37379,0.433595 -0.560686,1.113898 -0.560686,2.040897 v 4.81442 z m 9.957773,-8.014063 c 0.515833,-0.276606 0.949429,-0.60554 1.293317,-0.971858 0.351364,-0.366313 0.553207,-0.74758 0.598065,-1.128847 -0.4336,-0.02242 -0.770009,-0.149515 -1.009236,-0.396217 -0.246702,-0.246702 -0.373792,-0.568161 -0.373792,-0.964378 0,-0.261652 0.05981,-0.500879 0.179423,-0.710202 0.119611,-0.201848 0.284081,-0.366313 0.508354,-0.493403 0.216797,-0.119611 0.470974,-0.179419 0.755059,-0.179419 0.448546,0 0.814858,0.15699 1.091464,0.470974 0.276606,0.313985 0.411171,0.75506 0.411171,1.315742 0,0.941953 -0.246701,1.741862 -0.74758,2.414689 -0.493403,0.665343 -1.173701,1.240984 -2.025942,1.726908 z m 8.627084,8.186007 c -0.635444,0 -1.21856,-0.07475 -1.741867,-0.224272 -0.530783,-0.142045 -0.979328,-0.351363 -1.35312,-0.61302 -0.373788,-0.261651 -0.650394,-0.560681 -0.829813,-0.897095 l 1.293312,-1.397978 h 0.179419 c 0.30651,0.411171 0.672823,0.725155 1.098944,0.934478 0.418646,0.209323 0.874671,0.313985 1.368074,0.313985 0.456025,0 0.799914,-0.08224 1.031661,-0.246702 0.231752,-0.164469 0.343889,-0.396221 0.343889,-0.702726 0,-0.231747 -0.08224,-0.433596 -0.246702,-0.59059 -0.16447,-0.15699 -0.433596,-0.284076 -0.807388,-0.373788 l -1.226035,-0.299035 c -0.926999,-0.216793 -1.599821,-0.553207 -2.018463,-1.001757 -0.426121,-0.456025 -0.635444,-1.03166 -0.635444,-1.726912 0,-0.575636 0.142041,-1.083989 0.441071,-1.510115 0.291555,-0.426116 0.710201,-0.755055 1.248458,-0.979328 0.530783,-0.224272 1.158752,-0.336413 1.868953,-0.336413 0.837292,0 1.532539,0.119615 2.085751,0.366317 0.553211,0.239223 0.979332,0.560687 1.285837,0.964378 l -1.240983,1.35312 h -0.171945 c -0.261651,-0.291555 -0.545732,-0.508353 -0.874666,-0.642918 -0.321464,-0.134566 -0.680302,-0.201848 -1.083994,-0.201848 -0.919524,0 -1.375549,0.28408 -1.375549,0.859716 0,0.239227 0.08224,0.441075 0.254177,0.59059 0.171944,0.149515 0.470979,0.276606 0.904574,0.373793 l 1.143798,0.246702 c 0.949428,0.209318 1.6372,0.530782 2.070801,0.979332 0.44107,0.44107 0.657868,1.046615 0.657868,1.794195 0,0.590585 -0.149515,1.113893 -0.441071,1.562443 -0.291555,0.448545 -0.710201,0.799909 -1.263413,1.039136 -0.553206,0.246701 -1.203605,0.366312 -1.966134,0.366312 z m 15.026366,0 c -1.128843,0 -2.130604,-0.231747 -2.997796,-0.702721 -0.867196,-0.478454 -1.540018,-1.181181 -2.033417,-2.130609 -0.485929,-0.949428 -0.732631,-2.115655 -0.732631,-3.506154 0,-1.383024 0.246702,-2.54925 0.732631,-3.498678 0.493399,-0.949429 1.166221,-1.65963 2.033417,-2.130605 0.867192,-0.470974 1.868953,-0.702726 2.997796,-0.702726 1.188655,0 2.197887,0.231752 3.027704,0.695252 0.829813,0.463499 1.420403,1.166226 1.771766,2.11565 l -1.779241,1.091468 -0.209323,-0.01496 c -0.261656,-0.635444 -0.620494,-1.098943 -1.076519,-1.375544 -0.448545,-0.276606 -1.03166,-0.418646 -1.734387,-0.418646 -1.016706,0 -1.81662,0.343883 -2.392256,1.016711 -0.568161,0.680297 -0.859716,1.749337 -0.859716,3.222068 0,1.472736 0.291555,2.541776 0.859716,3.222078 0.575636,0.672817 1.37555,1.009231 2.392256,1.009231 1.607301,0 2.586629,-0.777484 2.945472,-2.332452 h 0.209318 l 1.794196,0.934479 c -0.336409,1.173696 -0.91205,2.048371 -1.726913,2.631482 -0.814863,0.583111 -1.883903,0.874671 -3.222073,0.874671 z m 9.61389,0 c -1.046615,0 -1.816624,-0.28408 -2.317502,-0.852241 -0.493404,-0.568161 -0.747581,-1.390499 -0.747581,-2.459538 v -6.16007 h 2.339928 v 5.868514 c 0,0.568157 0.119611,0.979328 0.366313,1.240984 0.239227,0.261651 0.620494,0.388737 1.128847,0.388737 0.650398,0 1.151277,-0.209323 1.510115,-0.635439 0.358838,-0.41865 0.538257,-1.091468 0.538257,-1.996043 v -4.866753 h 2.339927 V 89.4123 h -2.24274 v -1.368069 l -0.179419,-0.04488 c -0.299035,0.538261 -0.657873,0.934478 -1.091469,1.196134 -0.426121,0.261652 -0.979332,0.388738 -1.644676,0.388738 z m 10.847395,0 c -0.635444,0 -1.218559,-0.07475 -1.749341,-0.224272 -0.523308,-0.142045 -0.979328,-0.351363 -1.353121,-0.61302 -0.373792,-0.261651 -0.650393,-0.560681 -0.829812,-0.897095 l 1.300787,-1.397978 h 0.179419 c 0.30651,0.411171 0.672827,0.725155 1.091469,0.934478 0.418646,0.209323 0.882145,0.313985 1.375549,0.313985 0.456025,0 0.799909,-0.08224 1.024186,-0.246702 0.231747,-0.164469 0.351363,-0.396221 0.351363,-0.702726 0,-0.231747 -0.08224,-0.433596 -0.254176,-0.59059 -0.16447,-0.15699 -0.433601,-0.284076 -0.799914,-0.373788 l -1.233509,-0.299035 c -0.919524,-0.216793 -1.592347,-0.553207 -2.018468,-1.001757 -0.426121,-0.456025 -0.635444,-1.03166 -0.635444,-1.726912 0,-0.575636 0.14952,-1.083989 0.441076,-1.510115 0.29903,-0.426116 0.710201,-0.755055 1.248458,-0.979328 0.538257,-0.224272 1.158752,-0.336413 1.876428,-0.336413 0.837292,0 1.532539,0.119615 2.078277,0.366317 0.55321,0.239223 0.9868,0.560687 1.29331,0.964378 l -1.24846,1.35312 h -0.17194 c -0.25418,-0.291555 -0.545734,-0.508353 -0.867193,-0.642918 -0.32146,-0.134566 -0.687777,-0.201848 -1.083994,-0.201848 -0.919525,0 -1.383024,0.28408 -1.383024,0.859716 0,0.239227 0.08224,0.441075 0.254176,0.59059 0.171945,0.149515 0.478454,0.276606 0.91205,0.373793 l 1.143797,0.246702 c 0.941958,0.209318 1.629728,0.530782 2.070798,0.979332 0.4336,0.44107 0.6504,1.046615 0.6504,1.794195 0,0.590585 -0.14204,1.113893 -0.44107,1.562443 -0.29156,0.448545 -0.7102,0.799909 -1.26342,1.039131 -0.545733,0.246702 -1.203602,0.366317 -1.958657,0.366317 z m 10.630597,-2.392255 0.61302,1.726908 c -0.25419,0.209323 -0.57564,0.373792 -0.95691,0.493403 -0.38127,0.112137 -0.81486,0.171944 -1.29331,0.171944 -1.00924,0 -1.77177,-0.26913 -2.29508,-0.822337 -0.5233,-0.545737 -0.78496,-1.338171 -0.78496,-2.384781 v -4.418208 h -1.41292 V 80.10492 h 1.41292 V 78.2883 l 2.33246,-0.373788 v 2.190408 h 2.63896 v 1.853998 h -2.63896 v 4.246259 c 0,0.463504 0.0972,0.799913 0.29156,1.009236 0.18689,0.209323 0.46349,0.313985 0.82981,0.313985 0.41864,0 0.77748,-0.112141 1.09147,-0.336409 z m 6.2124,2.392255 c -0.90458,0 -1.70449,-0.186893 -2.39227,-0.560686 -0.68777,-0.373788 -1.22603,-0.919524 -1.60729,-1.644675 -0.3738,-0.717681 -0.56816,-1.592347 -0.56816,-2.616538 0,-1.016706 0.19436,-1.891377 0.56816,-2.616528 0.38126,-0.725156 0.91952,-1.278363 1.60729,-1.652155 0.68778,-0.373788 1.48769,-0.560686 2.39227,-0.560686 0.91204,0 1.71196,0.186898 2.39973,0.560686 0.68777,0.373792 1.22603,0.926999 1.6073,1.652155 0.38126,0.725151 0.57564,1.599822 0.57564,2.616528 0,1.024191 -0.19438,1.898857 -0.57564,2.616538 -0.38127,0.725151 -0.91953,1.270887 -1.6073,1.644675 -0.68777,0.373793 -1.48769,0.560686 -2.39973,0.560686 z m 0,-1.981089 c 1.4503,0 2.16798,-0.941953 2.16798,-2.84081 0,-0.979327 -0.18689,-1.704483 -0.55321,-2.160503 -0.37379,-0.456025 -0.91205,-0.687777 -1.61477,-0.687777 -1.44284,0 -2.16051,0.949428 -2.16051,2.84828 0,1.898857 0.71767,2.84081 2.16051,2.84081 z m 6.74318,1.809145 v -9.299905 h 2.24274 v 1.248463 l 0.17942,0.02992 c 0.29903,-0.500878 0.65787,-0.867191 1.06156,-1.098943 0.41117,-0.239227 0.93447,-0.358838 1.56992,-0.358838 0.70273,0 1.26341,0.14204 1.68953,0.418646 0.42613,0.276601 0.74011,0.687772 0.93447,1.218554 h 0.17942 c 0.28409,-0.553211 0.65788,-0.964378 1.10643,-1.233509 0.45602,-0.269126 1.01671,-0.403691 1.68953,-0.403691 1.92876,0 2.89314,1.076514 2.89314,3.222072 v 6.257243 h -2.33245 v -5.965694 c 0,-0.538257 -0.1047,-0.934474 -0.32147,-1.173701 -0.21679,-0.246702 -0.5532,-0.366313 -1.03166,-0.366313 -1.27836,0 -1.92128,0.859717 -1.92128,2.571675 v 4.934031 h -2.33245 v -5.965692 c 0,-0.538257 -0.1047,-0.934474 -0.32146,-1.173701 -0.2168,-0.246702 -0.56068,-0.366313 -1.03166,-0.366313 -0.60554,0 -1.07652,0.201844 -1.41293,0.60554 -0.33641,0.403692 -0.50088,1.039136 -0.50088,1.913807 v 4.986359 z m 22.85354,-12.327605 v 10.286713 h 5.5321 V 89.4123 h -7.96922 V 77.084695 Z m 9.56155,12.499549 c -0.59058,0 -1.1139,-0.104666 -1.54749,-0.328934 -0.44107,-0.216797 -0.77749,-0.538262 -1.00924,-0.964378 -0.23922,-0.426125 -0.35884,-0.934478 -0.35884,-1.525069 0,-0.553206 0.11962,-1.016706 0.35884,-1.390498 0.23175,-0.373793 0.59807,-0.680298 1.09148,-0.919525 0.49339,-0.239227 1.14379,-0.418646 1.93623,-0.553211 0.56068,-0.08971 0.97933,-0.186894 1.27089,-0.291556 0.29155,-0.104661 0.48592,-0.231747 0.59058,-0.366313 0.0971,-0.134565 0.14951,-0.306509 0.14951,-0.508353 0,-0.299035 -0.10469,-0.530787 -0.31398,-0.687777 -0.20932,-0.15699 -0.5532,-0.231747 -1.03913,-0.231747 -0.51584,0 -1.00924,0.112136 -1.47273,0.343884 -0.46351,0.231752 -0.8672,0.530782 -1.21109,0.912049 h -0.17194 l -0.97933,-1.480211 c 0.47845,-0.515828 1.05408,-0.926999 1.73438,-1.218554 0.67283,-0.29156 1.42041,-0.441075 2.22032,-0.441075 1.2335,0 2.12313,0.261656 2.67634,0.784963 0.54573,0.523303 0.82234,1.263409 0.82234,2.227791 v 4.036936 c 0,0.418641 0.18689,0.620489 0.54573,0.620489 0.14205,0 0.28408,-0.02246 0.41864,-0.07475 l 0.11214,0.03737 0.17195,1.622256 c -0.12709,0.08971 -0.30651,0.15699 -0.53826,0.209323 -0.23176,0.05232 -0.48593,0.08223 -0.76253,0.08223 -0.55321,0 -0.98681,-0.112136 -1.3008,-0.321459 -0.31398,-0.216793 -0.53078,-0.545732 -0.66534,-1.001757 l -0.17943,-0.02246 c -0.45602,0.971853 -1.30826,1.450307 -2.54924,1.450307 z m 0.74758,-1.741862 c 0.53826,0 0.96438,-0.179423 1.29331,-0.545736 0.32146,-0.358834 0.47846,-0.867191 0.47846,-1.51011 v -0.941954 l -0.157,-0.03737 c -0.14203,0.112137 -0.32146,0.209323 -0.55321,0.284081 -0.22427,0.07475 -0.5532,0.14952 -0.97933,0.224277 -0.50835,0.08224 -0.87467,0.224273 -1.09146,0.433596 -0.22428,0.201848 -0.33642,0.493404 -0.33642,0.867196 0,0.403691 0.11962,0.702721 0.35884,0.912049 0.23176,0.209323 0.56069,0.31398 0.98681,0.31398 z m 9.77835,1.741862 c -0.62797,0 -1.21108,-0.07475 -1.74185,-0.224272 -0.53079,-0.142045 -0.97934,-0.351363 -1.35312,-0.61302 -0.3738,-0.261651 -0.6504,-0.560681 -0.82982,-0.897095 l 1.30079,-1.397978 h 0.17194 c 0.31398,0.411171 0.6803,0.725155 1.09894,0.934478 0.41865,0.209323 0.88214,0.313985 1.37555,0.313985 0.45603,0 0.79244,-0.08224 1.02419,-0.246702 0.23175,-0.164469 0.35136,-0.396221 0.35136,-0.702726 0,-0.231747 -0.0897,-0.433596 -0.25418,-0.59059 -0.16446,-0.15699 -0.43359,-0.284076 -0.7999,-0.373788 l -1.23351,-0.299035 c -0.91953,-0.216793 -1.59235,-0.553207 -2.01847,-1.001757 -0.42612,-0.456025 -0.63544,-1.03166 -0.63544,-1.726912 0,-0.575636 0.14951,-1.083989 0.44106,-1.510115 0.29156,-0.426116 0.71021,-0.755055 1.24847,-0.979328 0.53826,-0.224272 1.15874,-0.336413 1.87642,-0.336413 0.8373,0 1.53254,0.119615 2.07828,0.366317 0.5532,0.239223 0.97932,0.560687 1.29331,0.964378 l -1.24846,1.35312 h -0.17194 c -0.25418,-0.291555 -0.54573,-0.508353 -0.86719,-0.642918 -0.32894,-0.134566 -0.68778,-0.201848 -1.084,-0.201848 -0.927,0 -1.38302,0.28408 -1.38302,0.859716 0,0.239227 0.0823,0.441075 0.25417,0.59059 0.17195,0.149515 0.47845,0.276606 0.90457,0.373793 l 1.15129,0.246702 c 0.94194,0.209318 1.62972,0.530782 2.0708,0.979332 0.43358,0.44107 0.65039,1.046615 0.65039,1.794195 0,0.590585 -0.14952,1.113893 -0.44107,1.562443 -0.29156,0.448545 -0.71021,0.799909 -1.26342,1.039131 -0.54572,0.246702 -1.20361,0.366317 -1.96614,0.366317 z m 13.4116,-4.298586 h -5.97317 c 0.0673,0.814858 0.29904,1.397973 0.68778,1.764286 0.39621,0.373792 0.93447,0.553211 1.61477,0.553211 0.53078,0 0.96438,-0.09718 1.29331,-0.299035 0.33642,-0.194368 0.59807,-0.500878 0.79992,-0.904569 h 0.17941 l 1.55497,0.994281 c -0.30651,0.650399 -0.76253,1.181176 -1.37554,1.584873 -0.61302,0.403691 -1.43536,0.605539 -2.45207,0.605539 -0.96438,0 -1.79419,-0.179419 -2.49691,-0.545731 -0.69525,-0.366318 -1.23352,-0.91205 -1.61478,-1.629731 -0.38127,-0.725151 -0.56817,-1.607296 -0.56817,-2.646437 0,-1.054085 0.20184,-1.943705 0.59807,-2.668861 0.39622,-0.725151 0.93448,-1.263408 1.61477,-1.622246 0.6803,-0.358843 1.4503,-0.538262 2.29508,-0.538262 1.31574,0 2.32497,0.351363 3.02022,1.046615 0.70273,0.695252 1.05409,1.719438 1.05409,3.072553 0,0.485929 -0.0225,0.867191 -0.0523,1.136327 z m -2.00352,-1.510115 c -0.0225,-0.702727 -0.18688,-1.218559 -0.49339,-1.540019 -0.30652,-0.328934 -0.75506,-0.485924 -1.34565,-0.485924 -1.18119,0 -1.87642,0.672818 -2.07827,2.025943 z m 4.26121,5.636757 v -9.299905 h 2.27265 v 1.383024 l 0.17194,0.02992 c 0.22427,-0.515828 0.5233,-0.889621 0.88963,-1.136322 0.36631,-0.239223 0.80738,-0.358839 1.33069,-0.358839 0.5233,0 0.92699,0.08971 1.20361,0.269131 l -0.39622,2.010989 -0.17942,0.03737 c -0.14952,-0.05981 -0.29156,-0.112136 -0.43359,-0.134566 -0.14205,-0.02992 -0.31399,-0.04488 -0.51584,-0.04488 -0.6504,0 -1.15127,0.231752 -1.49516,0.687777 -0.33642,0.456025 -0.50836,1.19613 -0.50836,2.205362 v 4.35092 z m 15.4824,0.171944 c -0.85225,0 -1.60729,-0.104666 -2.28012,-0.313984 -0.66535,-0.209323 -1.21856,-0.485924 -1.65963,-0.829813 -0.44855,-0.343888 -0.78496,-0.717676 -1.02419,-1.128847 l 1.34565,-1.6372 h 0.20933 c 0.3663,0.553211 0.83728,0.986802 1.41292,1.315741 0.56816,0.328934 1.2335,0.485928 1.99604,0.485928 0.65788,0 1.1438,-0.134565 1.4802,-0.411176 0.32895,-0.276601 0.49341,-0.650388 0.49341,-1.136317 0,-0.29156 -0.0523,-0.538257 -0.15699,-0.73263 -0.1047,-0.194374 -0.28408,-0.366313 -0.53078,-0.508353 -0.2467,-0.142046 -0.58311,-0.261657 -1.00176,-0.358843 l -1.58487,-0.366313 c -1.10642,-0.254177 -1.93624,-0.672823 -2.4745,-1.255934 -0.54573,-0.59059 -0.81486,-1.35312 -0.81486,-2.287599 0,-0.702726 0.17195,-1.315741 0.52331,-1.839048 0.34389,-0.530783 0.85224,-0.941949 1.51759,-1.233509 0.66534,-0.291556 1.46525,-0.433596 2.39225,-0.433596 0.94944,0 1.7643,0.119616 2.43712,0.373792 0.6803,0.246702 1.24846,0.627969 1.71943,1.151272 l -1.20359,1.652155 h -0.21681 c -0.34388,-0.366313 -0.74758,-0.642918 -1.19613,-0.822337 -0.44854,-0.186894 -0.96438,-0.276606 -1.54002,-0.276606 -0.66534,0 -1.1737,0.119611 -1.52507,0.351363 -0.35135,0.239227 -0.52329,0.568161 -0.52329,0.979332 0,0.388743 0.11961,0.695248 0.36631,0.927 0.2467,0.231747 0.66534,0.411166 1.27089,0.538257 l 1.61477,0.336414 c 1.19613,0.254171 2.06333,0.687772 2.60906,1.285837 0.53826,0.60554 0.80739,1.397974 0.80739,2.369831 0,0.770005 -0.16447,1.435352 -0.50088,2.010993 -0.32894,0.568161 -0.82982,1.009232 -1.49516,1.323216 -0.67283,0.31398 -1.49516,0.470974 -2.46702,0.470974 z M 202.55768,89.4123 V 76.374494 h 2.33245 v 4.948985 l 0.17943,0.03737 c 0.3065,-0.456025 0.68776,-0.807388 1.13631,-1.05409 0.44855,-0.246701 0.99429,-0.373792 1.62973,-0.373792 2.04838,0 3.07256,1.166226 3.07256,3.491204 v 5.988121 h -2.33245 v -5.689091 c 0,-0.635444 -0.1271,-1.098943 -0.38127,-1.383024 -0.2467,-0.291555 -0.64292,-0.433596 -1.17369,-0.433596 -0.65789,0 -1.17372,0.216798 -1.55498,0.657873 -0.38127,0.433596 -0.57564,1.113893 -0.57564,2.033418 v 4.81442 z m 14.95161,0.171944 c -0.91204,0 -1.71196,-0.186893 -2.39973,-0.560686 -0.68777,-0.373788 -1.21856,-0.919524 -1.59982,-1.644675 -0.38127,-0.717681 -0.56817,-1.592347 -0.56817,-2.616538 0,-1.016706 0.1869,-1.891377 0.56817,-2.616528 0.38126,-0.725156 0.91205,-1.278363 1.59982,-1.652155 0.68777,-0.373788 1.48769,-0.560686 2.39973,-0.560686 0.91205,0 1.71196,0.186898 2.39974,0.560686 0.68777,0.373792 1.22603,0.926999 1.60729,1.652155 0.38127,0.725151 0.56817,1.599822 0.56817,2.616528 0,1.024191 -0.1869,1.898857 -0.56817,2.616538 -0.38126,0.725151 -0.91952,1.270887 -1.60729,1.644675 -0.68778,0.373793 -1.48769,0.560686 -2.39974,0.560686 z m 0,-1.981089 c 1.44283,0 2.16799,-0.941953 2.16799,-2.84081 0,-0.979327 -0.1869,-1.704483 -0.55322,-2.160503 -0.37379,-0.456025 -0.91204,-0.687777 -1.61477,-0.687777 -1.44283,0 -2.16798,0.949428 -2.16798,2.84828 0,1.898857 0.72515,2.84081 2.16798,2.84081 z m 6.74318,5.576957 V 80.112395 h 2.33245 v 1.211084 l 0.17942,0.03737 c 0.27661,-0.470979 0.64293,-0.829817 1.10642,-1.069044 0.45603,-0.239222 1.00176,-0.358838 1.61477,-0.358838 0.74758,0 1.40546,0.179419 1.95866,0.530782 0.56069,0.358838 0.99429,0.8971 1.30827,1.614777 0.31398,0.725151 0.47097,1.622251 0.47097,2.683815 0,1.061565 -0.16446,1.95866 -0.4934,2.676336 -0.32892,0.717676 -0.78494,1.255938 -1.36806,1.614776 -0.5906,0.351364 -1.26343,0.530778 -2.02596,0.530778 -0.57563,0 -1.0765,-0.09718 -1.50263,-0.291551 -0.41864,-0.194373 -0.77748,-0.493408 -1.06904,-0.904574 l -0.17942,0.03737 v 4.754619 z m 4.43316,-5.576957 c 0.69524,0 1.22603,-0.224272 1.58487,-0.680297 0.35884,-0.45602 0.53825,-1.173701 0.53825,-2.160513 0,-0.979327 -0.17941,-1.704483 -0.53825,-2.160503 -0.35884,-0.456025 -0.88963,-0.687777 -1.58487,-0.687777 -0.6504,0 -1.16623,0.239227 -1.5475,0.710201 -0.38126,0.470979 -0.57563,1.188656 -0.57563,2.138079 0,0.949433 0.19437,1.659635 0.57563,2.138084 0.38127,0.470979 0.8971,0.702726 1.5475,0.702726 z m 0,0"
     stroke="#ffffff"
     stroke-width="0.928019"
     stroke-opacity="1"
     stroke-miterlimit="4"
     id="path33" />
  <g
     fill="#000000"
     fill-opacity="1"
     id="g36"
     transform="matrix(1.9138059,0,0,1.9138059,-87.742803,-70.039142)">
    <g
       transform="translate(56.738119,83.314961)"
       id="g35">
      <g
         id="g34">
        <path
           d="m 0.84375,0 v -6.4375 h 2.734375 c 0.394531,0 0.726563,0.0625 1,0.1875 0.28125,0.125 0.488281,0.304688 0.625,0.53125 0.144531,0.230469 0.21875,0.5 0.21875,0.8125 0,0.292969 -0.070313,0.546875 -0.203125,0.765625 C 5.082031,-3.929688 4.882812,-3.757812 4.625,-3.625 v 0.09375 c 0.40625,0.105469 0.71875,0.296875 0.9375,0.578125 0.21875,0.28125 0.328125,0.625 0.328125,1.03125 0,0.617187 -0.1875,1.089844 -0.5625,1.421875 C 4.960938,-0.164062 4.414062,0 3.6875,0 Z M 3.3125,-3.875 c 0.59375,0 0.890625,-0.265625 0.890625,-0.796875 0,-0.269531 -0.074219,-0.472656 -0.21875,-0.609375 C 3.835938,-5.414062 3.613281,-5.484375 3.3125,-5.484375 H 2.109375 V -3.875 Z m 0.234375,2.859375 c 0.707031,0 1.0625,-0.316406 1.0625,-0.953125 0,-0.632812 -0.355469,-0.953125 -1.0625,-0.953125 h -1.4375 v 1.90625 z m 0,0"
           id="path34" />
      </g>
    </g>
  </g>
  <g
     fill="#000000"
     fill-opacity="1"
     id="g39"
     transform="matrix(1.9138059,0,0,1.9138059,-87.742803,-70.039142)">
    <g
       transform="translate(63.035804,83.314961)"
       id="g38">
      <g
         id="g37">
        <path
           d="m 4.796875,-2.15625 h -3.125 c 0.039063,0.429688 0.160156,0.742188 0.359375,0.9375 0.207031,0.1875 0.488281,0.28125 0.84375,0.28125 0.28125,0 0.503906,-0.050781 0.671875,-0.15625 0.175781,-0.101562 0.316406,-0.265625 0.421875,-0.484375 H 4.0625 l 0.8125,0.53125 C 4.71875,-0.710938 4.476562,-0.4375 4.15625,-0.21875 3.84375,-0.0078125 3.414062,0.09375 2.875,0.09375 2.375,0.09375 1.941406,0 1.578125,-0.1875 1.210938,-0.382812 0.929688,-0.671875 0.734375,-1.046875 0.535156,-1.421875 0.4375,-1.878906 0.4375,-2.421875 0.4375,-2.972656 0.539062,-3.4375 0.75,-3.8125 c 0.207031,-0.382812 0.488281,-0.671875 0.84375,-0.859375 0.351562,-0.1875 0.753906,-0.28125 1.203125,-0.28125 0.6875,0 1.210937,0.183594 1.578125,0.546875 0.363281,0.367188 0.546875,0.902344 0.546875,1.609375 0,0.25 -0.011719,0.449219 -0.03125,0.59375 z M 3.75,-2.9375 C 3.738281,-3.3125 3.648438,-3.582031 3.484375,-3.75 3.328125,-3.914062 3.097656,-4 2.796875,-4 c -0.625,0 -0.992187,0.355469 -1.09375,1.0625 z m 0,0"
           id="path36" />
      </g>
    </g>
  </g>
  <g
     fill="#000000"
     fill-opacity="1"
     id="g42"
     transform="matrix(1.9138059,0,0,1.9138059,-87.742803,-70.039142)">
    <g
       transform="translate(68.316174,83.314961)"
       id="g41">
      <g
         id="g40">
        <path
           d="M 0.703125,0 V -4.859375 H 1.875 v 0.71875 L 1.96875,-4.125 c 0.300781,-0.550781 0.789062,-0.828125 1.46875,-0.828125 0.5625,0 0.972656,0.15625 1.234375,0.46875 C 4.929688,-4.179688 5.0625,-3.738281 5.0625,-3.15625 V 0 H 3.84375 v -3 c 0,-0.320312 -0.070312,-0.554688 -0.203125,-0.703125 -0.125,-0.144531 -0.328125,-0.21875 -0.609375,-0.21875 -0.355469,0 -0.632812,0.117187 -0.828125,0.34375 -0.1875,0.230469 -0.28125,0.585937 -0.28125,1.0625 V 0 Z m 0,0"
           id="path39" />
      </g>
    </g>
  </g>
  <g
     fill="#000000"
     fill-opacity="1"
     id="g45"
     transform="matrix(1.9138059,0,0,1.9138059,-87.742803,-70.039142)">
    <g
       transform="translate(74.006111,83.314961)"
       id="g44">
      <g
         id="g43">
        <path
           d="M 0.21875,-4.1875 C 0.476562,-4.332031 0.695312,-4.5 0.875,-4.6875 1.0625,-4.882812 1.171875,-5.082031 1.203125,-5.28125 0.972656,-5.28906 0.796875,-5.359375 0.671875,-5.484375 c -0.125,-0.132813 -0.1875,-0.300781 -0.1875,-0.5 0,-0.144531 0.03125,-0.269531 0.09375,-0.375 0.0625,-0.113281 0.148437,-0.203125 0.265625,-0.265625 0.113281,-0.0625 0.242188,-0.09375 0.390625,-0.09375 0.226563,0 0.414063,0.085938 0.5625,0.25 0.144531,0.167969 0.21875,0.398438 0.21875,0.6875 0,0.492188 -0.132813,0.914062 -0.390625,1.265625 C 1.363281,-4.171875 1.007812,-3.875 0.5625,-3.625 Z m 0,0"
           id="path42" />
      </g>
    </g>
  </g>
  <g
     fill="#000000"
     fill-opacity="1"
     id="g48"
     transform="matrix(1.9138059,0,0,1.9138059,-87.742803,-70.039142)">
    <g
       transform="translate(76.454722,83.314961)"
       id="g47">
      <g
         id="g46">
        <path
           d="m 2.265625,0.09375 c -0.324219,0 -0.625,-0.0390625 -0.90625,-0.109375 C 1.085938,-0.0976562 0.851562,-0.207031 0.65625,-0.34375 0.457031,-0.476562 0.3125,-0.632812 0.21875,-0.8125 l 0.671875,-0.734375 h 0.09375 c 0.164063,0.21875 0.359375,0.386719 0.578125,0.5 0.21875,0.105469 0.457031,0.15625 0.71875,0.15625 0.238281,0 0.414062,-0.039063 0.53125,-0.125 0.125,-0.09375 0.1875,-0.21875 0.1875,-0.375 0,-0.125 -0.046875,-0.226563 -0.140625,-0.3125 -0.085937,-0.082031 -0.21875,-0.144531 -0.40625,-0.1875 L 1.8125,-2.046875 C 1.320312,-2.160156 0.96875,-2.332031 0.75,-2.5625 0.53125,-2.800781 0.421875,-3.101562 0.421875,-3.46875 c 0,-0.300781 0.070313,-0.5625 0.21875,-0.78125 0.15625,-0.226562 0.375,-0.398438 0.65625,-0.515625 0.28125,-0.125 0.609375,-0.1875 0.984375,-0.1875 0.4375,0 0.796875,0.070313 1.078125,0.203125 0.289063,0.125 0.519531,0.292969 0.6875,0.5 l -0.65625,0.703125 H 3.296875 C 3.160156,-3.703125 3.007812,-3.8125 2.84375,-3.875 2.675781,-3.945312 2.488281,-3.984375 2.28125,-3.984375 c -0.480469,0 -0.71875,0.148437 -0.71875,0.4375 0,0.136719 0.039062,0.246094 0.125,0.328125 0.09375,0.074219 0.253906,0.136719 0.484375,0.1875 l 0.59375,0.125 c 0.488281,0.105469 0.847656,0.277344 1.078125,0.515625 0.226562,0.230469 0.34375,0.542969 0.34375,0.9375 0,0.304687 -0.078125,0.574219 -0.234375,0.8125 -0.148437,0.230469 -0.367187,0.414063 -0.65625,0.546875 -0.292969,0.125 -0.636719,0.1875 -1.03125,0.1875 z m 0,0"
           id="path45" />
      </g>
    </g>
  </g>
  <g
     fill="#000000"
     fill-opacity="1"
     id="g51"
     transform="translate(-0.0600035,-0.0390625)">
    <g
       transform="translate(80.933568,83.314961)"
       id="g50">
      <g
         id="g49" />
    </g>
  </g>
  <g
     fill="#000000"
     fill-opacity="1"
     id="g54"
     transform="matrix(1.9138059,0,0,1.9138059,-87.742803,-70.039142)">
    <g
       transform="translate(83.060692,83.314961)"
       id="g53">
      <g
         id="g52">
        <path
           d="M 3.515625,0.09375 C 2.921875,0.09375 2.394531,-0.0234375 1.9375,-0.265625 1.488281,-0.515625 1.132812,-0.882812 0.875,-1.375 0.625,-1.875 0.5,-2.488281 0.5,-3.21875 c 0,-0.726562 0.125,-1.335938 0.375,-1.828125 0.257812,-0.488281 0.613281,-0.859375 1.0625,-1.109375 0.457031,-0.25 0.984375,-0.375 1.578125,-0.375 0.625,0 1.148437,0.125 1.578125,0.375 0.4375,0.242188 0.742188,0.605469 0.921875,1.09375 L 5.09375,-4.484375 4.984375,-4.5 C 4.847656,-4.832031 4.660156,-5.070312 4.421875,-5.21875 4.179688,-5.363281 3.878906,-5.4375 3.515625,-5.4375 c -0.53125,0 -0.949219,0.179688 -1.25,0.53125 -0.304687,0.355469 -0.453125,0.917969 -0.453125,1.6875 0,0.773438 0.148438,1.335938 0.453125,1.6875 0.300781,0.34375 0.71875,0.515625 1.25,0.515625 0.832031,0 1.34375,-0.40625 1.53125,-1.21875 H 5.15625 l 0.9375,0.5 c -0.167969,0.605469 -0.464844,1.0625 -0.890625,1.375 -0.429687,0.3046875 -0.992187,0.453125 -1.6875,0.453125 z m 0,0"
           id="path51" />
      </g>
    </g>
  </g>
  <g
     fill="#000000"
     fill-opacity="1"
     id="g57"
     transform="matrix(1.9138059,0,0,1.9138059,-87.742803,-70.039142)">
    <g
       transform="translate(89.375993,83.314961)"
       id="g56">
      <g
         id="g55">
        <path
           d="m 2.21875,0.09375 c -0.542969,0 -0.945312,-0.1445312 -1.203125,-0.4375 C 0.753906,-0.644531 0.625,-1.078125 0.625,-1.640625 v -3.21875 h 1.21875 v 3.0625 c 0,0.304687 0.0625,0.523437 0.1875,0.65625 0.132812,0.136719 0.332031,0.203125 0.59375,0.203125 0.34375,0 0.609375,-0.109375 0.796875,-0.328125 0.1875,-0.226563 0.28125,-0.578125 0.28125,-1.046875 v -2.546875 h 1.21875 V 0 H 3.75 V -0.71875 L 3.65625,-0.734375 C 3.5,-0.453125 3.304688,-0.242188 3.078125,-0.109375 2.859375,0.0234375 2.570312,0.09375 2.21875,0.09375 Z m 0,0"
           id="path54" />
      </g>
    </g>
  </g>
  <g
     fill="#000000"
     fill-opacity="1"
     id="g60"
     transform="matrix(1.9138059,0,0,1.9138059,-87.742803,-70.039142)">
    <g
       transform="translate(94.995466,83.314961)"
       id="g59">
      <g
         id="g58">
        <path
           d="m 2.265625,0.09375 c -0.324219,0 -0.625,-0.0390625 -0.90625,-0.109375 C 1.085938,-0.0976562 0.851562,-0.207031 0.65625,-0.34375 0.457031,-0.476562 0.3125,-0.632812 0.21875,-0.8125 l 0.671875,-0.734375 h 0.09375 c 0.164063,0.21875 0.359375,0.386719 0.578125,0.5 0.21875,0.105469 0.457031,0.15625 0.71875,0.15625 0.238281,0 0.414062,-0.039063 0.53125,-0.125 0.125,-0.09375 0.1875,-0.21875 0.1875,-0.375 0,-0.125 -0.046875,-0.226563 -0.140625,-0.3125 -0.085937,-0.082031 -0.21875,-0.144531 -0.40625,-0.1875 L 1.8125,-2.046875 C 1.320312,-2.160156 0.96875,-2.332031 0.75,-2.5625 0.53125,-2.800781 0.421875,-3.101562 0.421875,-3.46875 c 0,-0.300781 0.070313,-0.5625 0.21875,-0.78125 0.15625,-0.226562 0.375,-0.398438 0.65625,-0.515625 0.28125,-0.125 0.609375,-0.1875 0.984375,-0.1875 0.4375,0 0.796875,0.070313 1.078125,0.203125 0.289063,0.125 0.519531,0.292969 0.6875,0.5 l -0.65625,0.703125 H 3.296875 C 3.160156,-3.703125 3.007812,-3.8125 2.84375,-3.875 2.675781,-3.945312 2.488281,-3.984375 2.28125,-3.984375 c -0.480469,0 -0.71875,0.148437 -0.71875,0.4375 0,0.136719 0.039062,0.246094 0.125,0.328125 0.09375,0.074219 0.253906,0.136719 0.484375,0.1875 l 0.59375,0.125 c 0.488281,0.105469 0.847656,0.277344 1.078125,0.515625 0.226562,0.230469 0.34375,0.542969 0.34375,0.9375 0,0.304687 -0.078125,0.574219 -0.234375,0.8125 -0.148437,0.230469 -0.367187,0.414063 -0.65625,0.546875 -0.292969,0.125 -0.636719,0.1875 -1.03125,0.1875 z m 0,0"
           id="path57" />
      </g>
    </g>
  </g>
  <g
     fill="#000000"
     fill-opacity="1"
     id="g63"
     transform="matrix(1.9138059,0,0,1.9138059,-87.742803,-70.039142)">
    <g
       transform="translate(99.474313,83.314961)"
       id="g62">
      <g
         id="g61">
        <path
           d="M 3.34375,-1.15625 3.671875,-0.25 c -0.136719,0.105469 -0.304687,0.1875 -0.5,0.25 -0.199219,0.0625 -0.429687,0.09375 -0.6875,0.09375 -0.523437,0 -0.917969,-0.140625 -1.1875,-0.421875 -0.273437,-0.289063 -0.40625,-0.707031 -0.40625,-1.25 v -2.3125 h -0.75 v -0.96875 h 0.75 V -5.8125 L 2.109375,-6 v 1.140625 h 1.375 v 0.96875 h -1.375 v 2.21875 c 0,0.242187 0.046875,0.417969 0.140625,0.53125 0.101562,0.105469 0.25,0.15625 0.4375,0.15625 0.21875,0 0.40625,-0.054687 0.5625,-0.171875 z m 0,0"
           id="path60" />
      </g>
    </g>
  </g>
  <g
     fill="#000000"
     fill-opacity="1"
     id="g66"
     transform="matrix(1.9138059,0,0,1.9138059,-87.742803,-70.039142)">
    <g
       transform="translate(103.24852,83.314961)"
       id="g65">
      <g
         id="g64">
        <path
           d="M 2.828125,0.09375 C 2.347656,0.09375 1.925781,-0.00390625 1.5625,-0.203125 1.207031,-0.398438 0.929688,-0.6875 0.734375,-1.0625 0.535156,-1.4375 0.4375,-1.890625 0.4375,-2.421875 c 0,-0.539063 0.097656,-1 0.296875,-1.375 0.195313,-0.375 0.472656,-0.660156 0.828125,-0.859375 0.363281,-0.195312 0.785156,-0.296875 1.265625,-0.296875 0.46875,0 0.878906,0.101563 1.234375,0.296875 0.363281,0.199219 0.644531,0.484375 0.84375,0.859375 0.207031,0.375 0.3125,0.835937 0.3125,1.375 0,0.53125 -0.105469,0.984375 -0.3125,1.359375 C 4.707031,-0.6875 4.425781,-0.398438 4.0625,-0.203125 3.707031,-0.00390625 3.296875,0.09375 2.828125,0.09375 Z m 0,-1.03125 c 0.75,0 1.125,-0.492188 1.125,-1.484375 0,-0.519531 -0.101563,-0.894531 -0.296875,-1.125 -0.1875,-0.238281 -0.464844,-0.359375 -0.828125,-0.359375 -0.761719,0 -1.140625,0.496094 -1.140625,1.484375 0,0.992187 0.378906,1.484375 1.140625,1.484375 z m 0,0"
           id="path63" />
      </g>
    </g>
  </g>
  <g
     fill="#000000"
     fill-opacity="1"
     id="g69"
     transform="matrix(1.9138059,0,0,1.9138059,-87.742803,-70.039142)">
    <g
       transform="translate(108.89442,83.314961)"
       id="g68">
      <g
         id="g67">
        <path
           d="M 0.703125,0 V -4.859375 H 1.875 v 0.65625 L 1.96875,-4.1875 c 0.15625,-0.257812 0.335938,-0.453125 0.546875,-0.578125 0.21875,-0.125 0.492187,-0.1875 0.828125,-0.1875 0.363281,0 0.65625,0.074219 0.875,0.21875 0.226562,0.148437 0.390625,0.359375 0.484375,0.640625 h 0.09375 c 0.15625,-0.289062 0.347656,-0.503906 0.578125,-0.640625 0.238281,-0.144531 0.535156,-0.21875 0.890625,-0.21875 1.007813,0 1.515625,0.5625 1.515625,1.6875 V 0 H 6.5625 v -3.109375 c 0,-0.289063 -0.058594,-0.5 -0.171875,-0.625 -0.117187,-0.125 -0.296875,-0.1875 -0.546875,-0.1875 -0.667969,0 -1,0.449219 -1,1.34375 V 0 H 3.625 v -3.109375 c 0,-0.289063 -0.058594,-0.5 -0.171875,-0.625 -0.117187,-0.125 -0.292969,-0.1875 -0.53125,-0.1875 -0.3125,0 -0.558594,0.109375 -0.734375,0.328125 -0.179688,0.210938 -0.265625,0.539062 -0.265625,0.984375 V 0 Z m 0,0"
           id="path66" />
      </g>
    </g>
  </g>
  <g
     fill="#000000"
     fill-opacity="1"
     id="g72"
     transform="translate(-0.0600035,-0.0390625)">
    <g
       transform="translate(117.29721,83.314961)"
       id="g71">
      <g
         id="g70" />
    </g>
  </g>
  <g
     fill="#000000"
     fill-opacity="1"
     id="g75"
     transform="matrix(1.9138059,0,0,1.9138059,-87.742803,-70.039142)">
    <g
       transform="translate(119.42433,83.314961)"
       id="g74">
      <g
         id="g73">
        <path
           d="m 2.109375,-6.4375 v 5.375 H 5 V 0 H 0.84375 v -6.4375 z m 0,0"
           id="path72" />
      </g>
    </g>
  </g>
  <g
     fill="#000000"
     fill-opacity="1"
     id="g78"
     transform="matrix(1.9138059,0,0,1.9138059,-87.742803,-70.039142)">
    <g
       transform="translate(124.63864,83.314961)"
       id="g77">
      <g
         id="g76">
        <path
           d="m 1.890625,0.09375 c -0.3125,0 -0.585937,-0.0585938 -0.8125,-0.171875 -0.230469,-0.113281 -0.40625,-0.28125 -0.53125,-0.5 C 0.429688,-0.804688 0.375,-1.070312 0.375,-1.375 c 0,-0.289062 0.054688,-0.535156 0.171875,-0.734375 0.125,-0.195313 0.316406,-0.351563 0.578125,-0.46875 0.257812,-0.125 0.597656,-0.222656 1.015625,-0.296875 0.289063,-0.039062 0.507813,-0.085938 0.65625,-0.140625 0.15625,-0.0625 0.257813,-0.128906 0.3125,-0.203125 0.050781,-0.070312 0.078125,-0.160156 0.078125,-0.265625 0,-0.15625 -0.058594,-0.273437 -0.171875,-0.359375 -0.105469,-0.082031 -0.28125,-0.125 -0.53125,-0.125 -0.273437,0 -0.53125,0.0625 -0.78125,0.1875 -0.242187,0.117188 -0.449219,0.273438 -0.625,0.46875 h -0.09375 l -0.5,-0.765625 C 0.722656,-4.347656 1.019531,-4.5625 1.375,-4.71875 1.738281,-4.875 2.128906,-4.953125 2.546875,-4.953125 3.191406,-4.953125 3.65625,-4.8125 3.9375,-4.53125 4.226562,-4.257812 4.375,-3.875 4.375,-3.375 v 2.109375 c 0,0.21875 0.09375,0.328125 0.28125,0.328125 0.070312,0 0.144531,-0.015625 0.21875,-0.046875 l 0.0625,0.015625 0.078125,0.859375 C 4.953125,-0.0664062 4.859375,-0.03125 4.734375,0 4.617188,0.0195312 4.488281,0.03125 4.34375,0.03125 4.050781,0.03125 3.820312,-0.0195312 3.65625,-0.125 3.5,-0.238281 3.382812,-0.414062 3.3125,-0.65625 L 3.21875,-0.671875 C 2.976562,-0.160156 2.535156,0.09375 1.890625,0.09375 Z M 2.28125,-0.8125 c 0.28125,0 0.503906,-0.09375 0.671875,-0.28125 0.164063,-0.195312 0.25,-0.460938 0.25,-0.796875 v -0.5 L 3.125,-2.40625 c -0.074219,0.0625 -0.171875,0.117188 -0.296875,0.15625 -0.117187,0.03125 -0.28125,0.070312 -0.5,0.109375 C 2.054688,-2.097656 1.863281,-2.019531 1.75,-1.90625 c -0.117188,0.105469 -0.171875,0.257812 -0.171875,0.453125 0,0.210937 0.0625,0.371094 0.1875,0.484375 0.125,0.105469 0.296875,0.15625 0.515625,0.15625 z m 0,0"
           id="path75" />
      </g>
    </g>
  </g>
  <g
     fill="#000000"
     fill-opacity="1"
     id="g81"
     transform="matrix(1.9138059,0,0,1.9138059,-87.742803,-70.039142)">
    <g
       transform="translate(129.76046,83.314961)"
       id="g80">
      <g
         id="g79">
        <path
           d="m 2.265625,0.09375 c -0.324219,0 -0.625,-0.0390625 -0.90625,-0.109375 C 1.085938,-0.0976562 0.851562,-0.207031 0.65625,-0.34375 0.457031,-0.476562 0.3125,-0.632812 0.21875,-0.8125 l 0.671875,-0.734375 h 0.09375 c 0.164063,0.21875 0.359375,0.386719 0.578125,0.5 0.21875,0.105469 0.457031,0.15625 0.71875,0.15625 0.238281,0 0.414062,-0.039063 0.53125,-0.125 0.125,-0.09375 0.1875,-0.21875 0.1875,-0.375 0,-0.125 -0.046875,-0.226563 -0.140625,-0.3125 -0.085937,-0.082031 -0.21875,-0.144531 -0.40625,-0.1875 L 1.8125,-2.046875 C 1.320312,-2.160156 0.96875,-2.332031 0.75,-2.5625 0.53125,-2.800781 0.421875,-3.101562 0.421875,-3.46875 c 0,-0.300781 0.070313,-0.5625 0.21875,-0.78125 0.15625,-0.226562 0.375,-0.398438 0.65625,-0.515625 0.28125,-0.125 0.609375,-0.1875 0.984375,-0.1875 0.4375,0 0.796875,0.070313 1.078125,0.203125 0.289063,0.125 0.519531,0.292969 0.6875,0.5 l -0.65625,0.703125 H 3.296875 C 3.160156,-3.703125 3.007812,-3.8125 2.84375,-3.875 2.675781,-3.945312 2.488281,-3.984375 2.28125,-3.984375 c -0.480469,0 -0.71875,0.148437 -0.71875,0.4375 0,0.136719 0.039062,0.246094 0.125,0.328125 0.09375,0.074219 0.253906,0.136719 0.484375,0.1875 l 0.59375,0.125 c 0.488281,0.105469 0.847656,0.277344 1.078125,0.515625 0.226562,0.230469 0.34375,0.542969 0.34375,0.9375 0,0.304687 -0.078125,0.574219 -0.234375,0.8125 -0.148437,0.230469 -0.367187,0.414063 -0.65625,0.546875 -0.292969,0.125 -0.636719,0.1875 -1.03125,0.1875 z m 0,0"
           id="path78" />
      </g>
    </g>
  </g>
  <g
     fill="#000000"
     fill-opacity="1"
     id="g84"
     transform="matrix(1.9138059,0,0,1.9138059,-87.742803,-70.039142)">
    <g
       transform="translate(134.23931,83.314961)"
       id="g83">
      <g
         id="g82">
        <path
           d="m 4.796875,-2.15625 h -3.125 c 0.039063,0.429688 0.160156,0.742188 0.359375,0.9375 0.207031,0.1875 0.488281,0.28125 0.84375,0.28125 0.28125,0 0.503906,-0.050781 0.671875,-0.15625 0.175781,-0.101562 0.316406,-0.265625 0.421875,-0.484375 H 4.0625 l 0.8125,0.53125 C 4.71875,-0.710938 4.476562,-0.4375 4.15625,-0.21875 3.84375,-0.0078125 3.414062,0.09375 2.875,0.09375 2.375,0.09375 1.941406,0 1.578125,-0.1875 1.210938,-0.382812 0.929688,-0.671875 0.734375,-1.046875 0.535156,-1.421875 0.4375,-1.878906 0.4375,-2.421875 0.4375,-2.972656 0.539062,-3.4375 0.75,-3.8125 c 0.207031,-0.382812 0.488281,-0.671875 0.84375,-0.859375 0.351562,-0.1875 0.753906,-0.28125 1.203125,-0.28125 0.6875,0 1.210937,0.183594 1.578125,0.546875 0.363281,0.367188 0.546875,0.902344 0.546875,1.609375 0,0.25 -0.011719,0.449219 -0.03125,0.59375 z M 3.75,-2.9375 C 3.738281,-3.3125 3.648438,-3.582031 3.484375,-3.75 3.328125,-3.914062 3.097656,-4 2.796875,-4 c -0.625,0 -0.992187,0.355469 -1.09375,1.0625 z m 0,0"
           id="path81" />
      </g>
    </g>
  </g>
  <g
     fill="#000000"
     fill-opacity="1"
     id="g87"
     transform="matrix(1.9138059,0,0,1.9138059,-87.742803,-70.039142)">
    <g
       transform="translate(139.51968,83.314961)"
       id="g86">
      <g
         id="g85">
        <path
           d="m 0.703125,0 v -4.859375 h 1.1875 v 0.71875 l 0.09375,0.03125 C 2.097656,-4.378906 2.25,-4.578125 2.4375,-4.703125 2.625,-4.835938 2.859375,-4.90625 3.140625,-4.90625 c 0.269531,0 0.476563,0.046875 0.625,0.140625 L 3.5625,-3.703125 3.46875,-3.6875 C 3.382812,-3.71875 3.304688,-3.738281 3.234375,-3.75 3.160156,-3.769531 3.070312,-3.78125 2.96875,-3.78125 c -0.34375,0 -0.605469,0.121094 -0.78125,0.359375 -0.179688,0.242187 -0.265625,0.625 -0.265625,1.15625 V 0 Z m 0,0"
           id="path84" />
      </g>
    </g>
  </g>
  <g
     fill="#000000"
     fill-opacity="1"
     id="g90"
     transform="translate(-0.0600035,-0.0390625)">
    <g
       transform="translate(143.32912,83.314961)"
       id="g89">
      <g
         id="g88" />
    </g>
  </g>
  <g
     fill="#000000"
     fill-opacity="1"
     id="g93"
     transform="matrix(1.9138059,0,0,1.9138059,-87.742803,-70.039142)">
    <g
       transform="translate(145.45625,83.314961)"
       id="g92">
      <g
         id="g91">
        <path
           d="M 2.859375,0.09375 C 2.410156,0.09375 2.007812,0.0390625 1.65625,-0.0625 1.3125,-0.175781 1.019531,-0.320312 0.78125,-0.5 0.550781,-0.6875 0.378906,-0.882812 0.265625,-1.09375 l 0.6875,-0.859375 H 1.0625 c 0.195312,0.292969 0.441406,0.523437 0.734375,0.6875 0.300781,0.167969 0.65625,0.25 1.0625,0.25 0.332031,0 0.582031,-0.066406 0.75,-0.203125 C 3.785156,-1.363281 3.875,-1.5625 3.875,-1.8125 3.875,-1.96875 3.847656,-2.097656 3.796875,-2.203125 3.742188,-2.304688 3.648438,-2.394531 3.515625,-2.46875 3.390625,-2.539062 3.21875,-2.601562 3,-2.65625 L 2.171875,-2.84375 C 1.585938,-2.976562 1.15625,-3.195312 0.875,-3.5 0.59375,-3.8125 0.453125,-4.210938 0.453125,-4.703125 c 0,-0.363281 0.085937,-0.679687 0.265625,-0.953125 0.1875,-0.28125 0.453125,-0.492188 0.796875,-0.640625 0.351563,-0.15625 0.769531,-0.234375 1.25,-0.234375 0.5,0 0.925781,0.070312 1.28125,0.203125 0.351563,0.125 0.648437,0.324219 0.890625,0.59375 L 4.3125,-4.875 H 4.203125 C 4.015625,-5.0625 3.800781,-5.203125 3.5625,-5.296875 3.332031,-5.390625 3.066406,-5.4375 2.765625,-5.4375 c -0.34375,0 -0.609375,0.0625 -0.796875,0.1875 -0.179688,0.117188 -0.265625,0.28125 -0.265625,0.5 0,0.210938 0.0625,0.375 0.1875,0.5 0.125,0.117188 0.34375,0.203125 0.65625,0.265625 l 0.859375,0.1875 c 0.625,0.125 1.078125,0.351563 1.359375,0.671875 0.28125,0.3125 0.421875,0.726562 0.421875,1.234375 0,0.398437 -0.089844,0.746094 -0.265625,1.046875 -0.179687,0.292969 -0.445313,0.523438 -0.796875,0.6875 -0.34375,0.1640625 -0.765625,0.25 -1.265625,0.25 z m 0,0"
           id="path90" />
      </g>
    </g>
  </g>
  <g
     fill="#000000"
     fill-opacity="1"
     id="g96"
     transform="matrix(1.9138059,0,0,1.9138059,-87.742803,-70.039142)">
    <g
       transform="translate(150.98764,83.314961)"
       id="g95">
      <g
         id="g94">
        <path
           d="m 0.703125,0 v -6.8125 h 1.21875 v 2.59375 l 0.09375,0.015625 C 2.171875,-4.441406 2.363281,-4.625 2.59375,-4.75 2.832031,-4.882812 3.117188,-4.953125 3.453125,-4.953125 4.523438,-4.953125 5.0625,-4.34375 5.0625,-3.125 V 0 H 3.84375 v -2.96875 c 0,-0.332031 -0.070312,-0.570312 -0.203125,-0.71875 -0.125,-0.15625 -0.328125,-0.234375 -0.609375,-0.234375 -0.34375,0 -0.617188,0.117187 -0.8125,0.34375 -0.199219,0.230469 -0.296875,0.585937 -0.296875,1.0625 V 0 Z m 0,0"
           id="path93" />
      </g>
    </g>
  </g>
  <g
     fill="#000000"
     fill-opacity="1"
     id="g99"
     transform="matrix(1.9138059,0,0,1.9138059,-87.742803,-70.039142)">
    <g
       transform="translate(156.67758,83.314961)"
       id="g98">
      <g
         id="g97">
        <path
           d="M 2.828125,0.09375 C 2.347656,0.09375 1.925781,-0.00390625 1.5625,-0.203125 1.207031,-0.398438 0.929688,-0.6875 0.734375,-1.0625 0.535156,-1.4375 0.4375,-1.890625 0.4375,-2.421875 c 0,-0.539063 0.097656,-1 0.296875,-1.375 0.195313,-0.375 0.472656,-0.660156 0.828125,-0.859375 0.363281,-0.195312 0.785156,-0.296875 1.265625,-0.296875 0.46875,0 0.878906,0.101563 1.234375,0.296875 0.363281,0.199219 0.644531,0.484375 0.84375,0.859375 0.207031,0.375 0.3125,0.835937 0.3125,1.375 0,0.53125 -0.105469,0.984375 -0.3125,1.359375 C 4.707031,-0.6875 4.425781,-0.398438 4.0625,-0.203125 3.707031,-0.00390625 3.296875,0.09375 2.828125,0.09375 Z m 0,-1.03125 c 0.75,0 1.125,-0.492188 1.125,-1.484375 0,-0.519531 -0.101563,-0.894531 -0.296875,-1.125 -0.1875,-0.238281 -0.464844,-0.359375 -0.828125,-0.359375 -0.761719,0 -1.140625,0.496094 -1.140625,1.484375 0,0.992187 0.378906,1.484375 1.140625,1.484375 z m 0,0"
           id="path96" />
      </g>
    </g>
  </g>
  <g
     fill="#000000"
     fill-opacity="1"
     id="g102"
     transform="matrix(1.9138059,0,0,1.9138059,-87.742803,-70.039142)">
    <g
       transform="translate(162.32347,83.314961)"
       id="g101">
      <g
         id="g100">
        <path
           d="m 0.703125,1.96875 v -6.828125 h 1.21875 v 0.640625 l 0.09375,0.015625 c 0.144531,-0.25 0.335937,-0.4375 0.578125,-0.5625 0.238281,-0.125 0.519531,-0.1875 0.84375,-0.1875 0.382812,0 0.722656,0.09375 1.015625,0.28125 0.289063,0.1875 0.519531,0.46875 0.6875,0.84375 0.164063,0.375 0.25,0.84375 0.25,1.40625 0,0.554687 -0.089844,1.015625 -0.265625,1.390625 C 4.957031,-0.65625 4.71875,-0.375 4.40625,-0.1875 4.101562,0 3.753906,0.09375 3.359375,0.09375 3.054688,0.09375 2.789062,0.0390625 2.5625,-0.0625 2.34375,-0.164062 2.160156,-0.320312 2.015625,-0.53125 l -0.09375,0.015625 V 1.96875 Z m 2.3125,-2.90625 c 0.363281,0 0.640625,-0.117188 0.828125,-0.359375 0.1875,-0.238281 0.28125,-0.613281 0.28125,-1.125 0,-0.519531 -0.09375,-0.894531 -0.28125,-1.125 -0.1875,-0.238281 -0.464844,-0.359375 -0.828125,-0.359375 -0.34375,0 -0.617187,0.125 -0.8125,0.375 -0.199219,0.242188 -0.296875,0.609375 -0.296875,1.109375 0,0.492187 0.097656,0.859375 0.296875,1.109375 0.195313,0.25 0.46875,0.375 0.8125,0.375 z m 0,0"
           id="path99" />
      </g>
    </g>
  </g>
</svg>
